# xmcd CD database file generated by OrangeCD 6.5
#
# Track frame offsets:
#	150
#	19347
#	38692
#	53349
#	70547
#	85916
#	103159
#	117359
#	135709
#	153720
#	165268
#	181037
#	195263
#	212404
#	227194
#	244519
#	258454
#	272147
#	285347
#	297377
#
# Disc length: 4171 seconds
#
# Revision: 0
# Processed by: cddbd v1.5.2PL0 Copyright (c) Steve Scherf et al.
# Submitted via: OrangeCD 6.5
#
DISCID=0c104914
DTITLE=Guy Clark - Guy Clark/The South Coast Of Texas/Better Days
DYEAR=2015
DGENRE=Outlaw Country
TTITLE0=Fool On The Hill
TTITLE1=Fools For Each Other
TTITLE2=Shade Of All Greens
TTITLE3=Voila, An American Dream
TTITLE4=One Paper Kid
TTITLE5=In The Jailhouse Now
TTITLE6=Comfort And Crazy
TTITLE7=Don't You Take It Too Bad
TTITLE8=The Houston Kid
TTITLE9=Fool On The Roof Blues
TTITLE10=Who Do You Think You Are
TTITLE11=Crystelle
TTITLE12=New Cut Road
TTITLE13=Rita Ballou
TTITLE14=South Coast of Texas
TTITLE15=Heartbroke
TTITLE16=The Partner Nobody Chose
TTITLE17=She's Crazy For Leavin'
TTITLE18=Calf-Rope
TTITLE19=Lone Star Hotel
EXTD=
EXTT0=
EXTT1=
EXTT2=
EXTT3=
EXTT4=
EXTT5=
EXTT6=
EXTT7=
EXTT8=
EXTT9=
EXTT10=
EXTT11=
EXTT12=
EXTT13=
EXTT14=
EXTT15=
EXTT16=
EXTT17=
EXTT18=
EXTT19=
PLAYORDER=
